<svg width="170" height="170" viewBox="0 0 170 170" xmlns="http://www.w3.org/2000/svg">
  <rect width="170" height="170" fill="#0f172a"/>
  <ellipse cx="85" cy="80" rx="62" ry="26" fill="#1e293b"/>
  <ellipse cx="60" cy="72" rx="34" ry="23" fill="#334155"/>

  <style>
    @keyframes fall { 0% { transform: translateY(-50px); opacity: 0; } 50% { opacity: 1; } 100% { transform: translateY(90px); opacity: 0; } }
    .drop { animation: fall 1s linear infinite; filter: drop-shadow(0 0 4px #60a5fa); }
    .drop:nth-child(2) { animation-delay: 0.2s; }
    .drop:nth-child(3) { animation-delay: 0.4s; }
  </style>
  <path class="drop" d="M50 95 Q48 102, 50 108 L49 115 L51 115 Z" fill="#60a5fa"/>
  <path class="drop" d="M70 95 Q68 102, 70 108 L69 115 L71 115 Z" fill="#60a5fa"/>
  <path class="drop" d="M90 95 Q88 102, 90 108 L89 115 L91 115 Z" fill="#60a5fa"/>
  <path class="drop" d="M110 95 Q108 102, 110 108 L109 115 L111 115 Z" fill="#60a5fa"/>
  <path class="drop" d="M130 95 Q128 102, 130 108 L129 115 L131 115 Z" fill="#60a5fa"/>
</svg>